<svg width="634" height="583" viewBox="0 0 634 583" fill="none" xmlns="http://www.w3.org/2000/svg">
<path fill-rule="evenodd" clip-rule="evenodd" d="M344.643 511.932C344.643 511.932 343.807 497.744 342.714 497.744C341.621 497.744 340.785 511.932 340.785 511.932C340.785 512.445 340.988 512.937 341.35 513.3C341.711 513.662 342.202 513.866 342.714 513.866C343.225 513.866 343.716 513.662 344.078 513.3C344.44 512.937 344.643 512.445 344.643 511.932ZM338.212 514.51C338.212 514.51 322.778 515.348 322.778 516.444C322.778 517.541 338.212 518.379 338.212 518.379C338.724 518.379 339.215 518.175 339.576 517.812C339.938 517.45 340.142 516.958 340.142 516.444C340.142 515.931 339.938 515.439 339.576 515.076C339.215 514.714 338.724 514.51 338.212 514.51ZM340.785 521.605C340.785 521.091 340.988 520.599 341.35 520.237C341.711 519.874 342.202 519.67 342.714 519.67C343.225 519.67 343.716 519.874 344.078 520.237C344.44 520.599 344.643 521.091 344.643 521.605C344.643 521.605 343.807 534.502 342.714 534.502C341.621 534.502 340.785 521.605 340.785 521.605ZM346.572 518.379C346.572 518.379 360.72 517.541 360.72 516.444C360.72 515.348 346.572 514.51 346.572 514.51C346.061 514.51 345.57 514.714 345.208 515.076C344.846 515.439 344.643 515.931 344.643 516.444C344.643 516.958 344.846 517.45 345.208 517.812C345.57 518.175 346.061 518.379 346.572 518.379Z" fill="#FF9719"/>
<path d="M317.955 478.066C315.92 478.066 313.931 477.461 312.238 476.327C310.546 475.193 309.228 473.582 308.449 471.696C307.67 469.811 307.466 467.736 307.863 465.735C308.26 463.733 309.24 461.895 310.679 460.452C312.118 459.009 313.952 458.026 315.948 457.628C317.944 457.23 320.012 457.434 321.892 458.215C323.773 458.996 325.38 460.319 326.51 462.015C327.641 463.712 328.244 465.707 328.244 467.748C328.244 469.103 327.978 470.445 327.461 471.696C326.944 472.948 326.186 474.086 325.231 475.044C324.275 476.002 323.141 476.762 321.892 477.281C320.644 477.799 319.306 478.066 317.955 478.066ZM317.955 460.009C316.429 460.009 314.937 460.463 313.668 461.313C312.399 462.164 311.409 463.372 310.825 464.786C310.241 466.2 310.088 467.756 310.386 469.258C310.684 470.759 311.419 472.138 312.498 473.22C313.577 474.302 314.952 475.039 316.449 475.338C317.946 475.636 319.498 475.483 320.908 474.897C322.318 474.312 323.523 473.32 324.371 472.047C325.219 470.775 325.672 469.278 325.672 467.748C325.672 465.695 324.859 463.727 323.412 462.276C321.964 460.825 320.002 460.009 317.955 460.009Z" fill="#FF9719"/>
<path d="M171.756 516.834C168.639 516.834 165.592 515.907 163.001 514.17C160.41 512.433 158.39 509.965 157.198 507.077C156.006 504.19 155.695 501.012 156.304 497.947C156.913 494.882 158.415 492.067 160.619 489.857C162.824 487.648 165.633 486.145 168.69 485.536C171.747 484.928 174.915 485.243 177.794 486.441C180.673 487.639 183.133 489.666 184.862 492.266C186.592 494.866 187.514 497.922 187.511 501.047C187.503 505.233 185.84 509.246 182.886 512.205C179.933 515.164 175.93 516.829 171.756 516.834ZM171.756 487.814C169.149 487.814 166.6 488.589 164.433 490.041C162.265 491.493 160.575 493.557 159.577 495.972C158.579 498.387 158.317 501.044 158.825 503.608C159.332 506.173 160.587 508.528 162.429 510.378C164.272 512.227 166.619 513.487 169.176 513.999C171.732 514.51 174.383 514.25 176.792 513.252C179.201 512.253 181.261 510.56 182.711 508.388C184.161 506.216 184.936 503.661 184.939 501.047C184.939 497.54 183.55 494.176 181.078 491.694C178.606 489.213 175.253 487.817 171.756 487.814Z" fill="#FF9719"/>
<path d="M213.775 513.525C212.376 513.525 211.008 513.109 209.845 512.33C208.682 511.55 207.775 510.442 207.239 509.146C206.704 507.85 206.564 506.424 206.837 505.048C207.11 503.672 207.784 502.408 208.773 501.416C209.762 500.424 211.023 499.748 212.395 499.474C213.767 499.2 215.189 499.341 216.482 499.878C217.775 500.415 218.879 501.324 219.657 502.491C220.434 503.657 220.849 505.029 220.849 506.432C220.849 508.313 220.104 510.117 218.777 511.448C217.45 512.778 215.651 513.525 213.775 513.525ZM213.775 501.917C212.885 501.917 212.014 502.182 211.274 502.678C210.534 503.174 209.957 503.879 209.616 504.704C209.275 505.529 209.186 506.437 209.36 507.312C209.534 508.188 209.962 508.992 210.592 509.624C211.221 510.255 212.024 510.685 212.897 510.859C213.77 511.033 214.675 510.944 215.498 510.602C216.32 510.261 217.023 509.682 217.518 508.94C218.013 508.197 218.277 507.324 218.277 506.432C218.277 505.234 217.802 504.086 216.958 503.24C216.114 502.393 214.969 501.917 213.775 501.917Z" fill="#FF9719"/>
<path d="M348.045 423.335C345.12 423.335 342.26 422.465 339.828 420.835C337.395 419.205 335.499 416.889 334.38 414.178C333.26 411.468 332.967 408.486 333.538 405.609C334.109 402.731 335.518 400.089 337.586 398.014C339.655 395.94 342.29 394.527 345.159 393.955C348.029 393.383 351.003 393.676 353.705 394.799C356.408 395.922 358.718 397.823 360.343 400.262C361.968 402.701 362.836 405.569 362.836 408.502C362.836 412.436 361.278 416.209 358.504 418.99C355.73 421.772 351.968 423.335 348.045 423.335ZM348.045 396.249C345.628 396.249 343.266 396.968 341.257 398.314C339.247 399.661 337.681 401.574 336.756 403.813C335.832 406.052 335.59 408.516 336.061 410.893C336.533 413.269 337.696 415.453 339.405 417.166C341.114 418.88 343.291 420.047 345.661 420.52C348.031 420.992 350.488 420.75 352.721 419.822C354.953 418.895 356.862 417.325 358.204 415.31C359.547 413.295 360.264 410.926 360.264 408.502C360.264 405.253 358.976 402.136 356.685 399.838C354.393 397.54 351.286 396.249 348.045 396.249Z" fill="#FF9719"/>
<path fill-rule="evenodd" clip-rule="evenodd" d="M298.341 559.644C298.341 559.644 297.505 545.457 296.412 545.457C295.318 545.457 294.482 559.644 294.482 559.644C294.482 560.158 294.686 560.65 295.047 561.012C295.409 561.375 295.9 561.579 296.412 561.579C296.923 561.579 297.414 561.375 297.776 561.012C298.138 560.65 298.341 560.158 298.341 559.644ZM291.91 562.223C291.91 562.223 276.476 563.061 276.476 564.157C276.476 565.254 291.91 566.092 291.91 566.092C292.422 566.092 292.912 565.888 293.274 565.525C293.636 565.163 293.839 564.67 293.839 564.157C293.839 563.644 293.636 563.152 293.274 562.789C292.912 562.426 292.422 562.223 291.91 562.223ZM294.482 569.317C294.482 568.804 294.686 568.312 295.047 567.949C295.409 567.587 295.9 567.383 296.412 567.383C296.923 567.383 297.414 567.587 297.776 567.949C298.138 568.312 298.341 568.804 298.341 569.317C298.341 569.317 297.505 582.215 296.412 582.215C295.318 582.215 294.482 569.317 294.482 569.317ZM300.27 566.092C300.27 566.092 314.418 565.254 314.418 564.157C314.418 563.061 300.27 562.223 300.27 562.223C299.758 562.223 299.268 562.426 298.906 562.789C298.544 563.152 298.341 563.644 298.341 564.157C298.341 564.67 298.544 565.163 298.906 565.525C299.268 565.888 299.758 566.092 300.27 566.092Z" fill="#FF9719"/>
<path fill-rule="evenodd" clip-rule="evenodd" d="M197.865 531.187C197.865 531.187 197.029 517 195.936 517C194.843 517 194.007 531.187 194.007 531.187C194.007 531.701 194.21 532.193 194.572 532.555C194.933 532.918 195.424 533.122 195.936 533.122C196.447 533.122 196.938 532.918 197.3 532.555C197.662 532.193 197.865 531.701 197.865 531.187ZM191.434 533.766C191.434 533.766 176 534.604 176 535.7C176 536.797 191.434 537.635 191.434 537.635C191.946 537.635 192.436 537.431 192.798 537.068C193.16 536.705 193.363 536.213 193.363 535.7C193.363 535.187 193.16 534.695 192.798 534.332C192.436 533.969 191.946 533.766 191.434 533.766ZM194.007 540.86C194.007 540.347 194.21 539.855 194.572 539.492C194.933 539.13 195.424 538.926 195.936 538.926C196.447 538.926 196.938 539.13 197.3 539.492C197.662 539.855 197.865 540.347 197.865 540.86C197.865 540.86 197.029 553.758 195.936 553.758C194.843 553.758 194.007 540.86 194.007 540.86ZM199.794 537.635C199.794 537.635 213.942 536.797 213.942 535.7C213.942 534.604 199.794 533.766 199.794 533.766C199.282 533.766 198.792 533.969 198.43 534.332C198.068 534.695 197.865 535.187 197.865 535.7C197.865 536.213 198.068 536.705 198.43 537.068C198.792 537.431 199.282 537.635 199.794 537.635Z" fill="#FF9719"/>
<path fill-rule="evenodd" clip-rule="evenodd" d="M433.11 66.7234C433.11 66.7234 433.911 80.3184 434.958 80.3184C436.005 80.3184 436.806 66.7234 436.806 66.7234C436.806 66.2317 436.611 65.7602 436.265 65.4125C435.918 65.0648 435.448 64.8695 434.958 64.8695C434.468 64.8695 433.998 65.0648 433.652 65.4125C433.305 65.7602 433.11 66.2317 433.11 66.7234ZM439.27 64.252C439.27 64.252 454.053 63.4486 454.053 62.3981C454.053 61.3476 439.27 60.5442 439.27 60.5442C438.78 60.5442 438.31 60.7395 437.963 61.0872C437.617 61.4349 437.422 61.9064 437.422 62.3981C437.422 62.8898 437.617 63.3613 437.963 63.709C438.31 64.0566 438.78 64.252 439.27 64.252ZM436.806 57.4547C436.806 57.9464 436.611 58.4179 436.265 58.7656C435.918 59.1133 435.448 59.3086 434.958 59.3086C434.468 59.3086 433.998 59.1133 433.652 58.7656C433.305 58.4179 433.11 57.9464 433.11 57.4547C433.11 57.4547 433.911 45.0956 434.958 45.0956C436.005 45.0956 436.806 57.4547 436.806 57.4547ZM431.262 60.5442C431.262 60.5442 417.711 61.3476 417.711 62.3981C417.711 63.4486 431.262 64.252 431.262 64.252C431.753 64.252 432.223 64.0566 432.569 63.709C432.916 63.3613 433.11 62.8898 433.11 62.3981C433.11 61.9064 432.916 61.4349 432.569 61.0872C432.223 60.7395 431.753 60.5442 431.262 60.5442Z" fill="#FF9719"/>
<path d="M599.095 43.4668C598.048 43.4668 597.247 29.8718 597.247 29.8718C597.247 29.3802 597.442 28.9086 597.788 28.561C598.135 28.2133 598.605 28.018 599.095 28.018C599.585 28.018 600.055 28.2133 600.402 28.561C600.748 28.9086 600.943 29.3802 600.943 29.8718C600.943 29.8718 600.142 43.4668 599.095 43.4668Z" fill="#FF9719"/>
<path d="M618.19 25.5465C618.19 26.597 603.407 27.4004 603.407 27.4004C602.917 27.4004 602.447 27.2051 602.1 26.8574C601.753 26.5097 601.559 26.0382 601.559 25.5465C601.559 25.0548 601.753 24.5833 602.1 24.2356C602.447 23.8879 602.917 23.6926 603.407 23.6926C603.407 23.6926 618.19 24.496 618.19 25.5465Z" fill="#FF9719"/>
<path d="M600.943 20.6012C600.943 21.0929 600.748 21.5644 600.402 21.9121C600.055 22.2598 599.585 22.4551 599.095 22.4551C598.605 22.4551 598.135 22.2598 597.788 21.9121C597.442 21.5644 597.247 21.0929 597.247 20.6012C597.247 20.6012 598.048 8.24216 599.095 8.24216C600.142 8.24216 600.943 20.6012 600.943 20.6012Z" fill="#FF9719"/>
<path d="M581.848 25.5465C581.848 24.496 595.399 23.6926 595.399 23.6926C595.889 23.6926 596.359 23.8879 596.706 24.2356C597.052 24.5833 597.247 25.0548 597.247 25.5465C597.247 26.0382 597.052 26.5097 596.706 26.8574C596.359 27.2051 595.889 27.4004 595.399 27.4004C595.399 27.4004 581.848 26.597 581.848 25.5465Z" fill="#FF9719"/>
<path d="M478.673 100.009C480.622 100.009 482.528 100.589 484.149 101.675C485.769 102.761 487.032 104.306 487.778 106.112C488.524 107.919 488.72 109.907 488.339 111.825C487.959 113.743 487.02 115.505 485.642 116.887C484.264 118.27 482.508 119.212 480.596 119.593C478.684 119.975 476.702 119.779 474.902 119.031C473.101 118.282 471.562 117.015 470.479 115.389C469.396 113.763 468.818 111.851 468.818 109.896C468.818 108.598 469.073 107.312 469.568 106.112C470.063 104.913 470.789 103.823 471.704 102.905C472.619 101.986 473.706 101.258 474.902 100.761C476.097 100.264 477.379 100.009 478.673 100.009ZM478.673 117.311C480.135 117.311 481.564 116.876 482.78 116.062C483.995 115.247 484.943 114.089 485.502 112.734C486.062 111.379 486.208 109.888 485.923 108.449C485.638 107.011 484.934 105.69 483.9 104.652C482.866 103.615 481.549 102.909 480.115 102.623C478.681 102.337 477.195 102.484 475.844 103.045C474.494 103.606 473.339 104.557 472.527 105.776C471.715 106.996 471.282 108.429 471.282 109.896C471.282 111.863 472.06 113.749 473.446 115.139C474.833 116.53 476.713 117.311 478.673 117.311Z" fill="#FF9719"/>
<path d="M618.707 43.6949C621.693 43.6949 624.611 44.5831 627.093 46.2473C629.575 47.9114 631.509 50.2767 632.651 53.0438C633.793 55.811 634.091 58.8558 633.508 61.7929C632.924 64.7301 631.486 67.4278 629.374 69.5446C627.262 71.6615 624.572 73.1024 621.644 73.6852C618.716 74.268 615.681 73.9664 612.924 72.8186C610.166 71.6708 607.81 69.7284 606.153 67.237C604.497 64.7456 603.614 61.8173 603.616 58.8224C603.624 54.8107 605.217 50.9658 608.046 48.1303C610.875 45.2947 614.709 43.6998 618.707 43.6949ZM618.707 71.5028C621.204 71.5028 623.645 70.7601 625.721 69.3687C627.798 67.9773 629.416 65.9995 630.372 63.6854C631.328 61.3714 631.579 58.8249 631.093 56.3679C630.607 53.9108 629.405 51.6536 627.641 49.8815C625.876 48.1093 623.627 46.9018 621.178 46.4116C618.73 45.9214 616.191 46.1705 613.884 47.1275C611.576 48.0844 609.603 49.7061 608.214 51.7878C606.825 53.8694 606.082 56.3174 606.08 58.8224C606.08 62.1833 607.41 65.4067 609.778 67.7844C612.145 70.1621 615.357 71.4995 618.707 71.5028Z" fill="#FF9719"/>
<path d="M578.46 46.866C579.8 46.866 581.11 47.2646 582.224 48.0115C583.338 48.7585 584.207 49.8201 584.72 51.0622C585.232 52.3042 585.367 53.671 585.105 54.9896C584.844 56.3082 584.198 57.5193 583.251 58.47C582.303 59.4206 581.096 60.068 579.782 60.3303C578.467 60.5926 577.105 60.458 575.867 59.9435C574.629 59.429 573.57 58.5578 572.826 57.4399C572.081 56.3221 571.684 55.0079 571.684 53.6635C571.684 51.8606 572.398 50.1317 573.669 48.8569C574.939 47.5821 576.663 46.866 578.46 46.866ZM578.46 57.9891C579.313 57.9891 580.146 57.7354 580.855 57.2601C581.564 56.7848 582.117 56.1092 582.443 55.3188C582.77 54.5284 582.855 53.6587 582.689 52.8196C582.522 51.9805 582.112 51.2097 581.509 50.6047C580.906 49.9998 580.137 49.5878 579.301 49.4209C578.464 49.254 577.598 49.3396 576.81 49.667C576.022 49.9944 575.348 50.5489 574.875 51.2602C574.401 51.9716 574.148 52.8079 574.148 53.6635C574.148 54.8107 574.602 55.9109 575.411 56.7222C576.219 57.5334 577.316 57.9891 578.46 57.9891Z" fill="#FF9719"/>
<path d="M449.852 152.455C452.654 152.455 455.393 153.289 457.723 154.85C460.053 156.412 461.868 158.632 462.941 161.229C464.013 163.826 464.294 166.684 463.747 169.441C463.2 172.198 461.851 174.73 459.87 176.718C457.888 178.706 455.364 180.059 452.616 180.608C449.868 181.156 447.019 180.875 444.43 179.799C441.842 178.723 439.629 176.902 438.072 174.564C436.516 172.227 435.685 169.479 435.685 166.668C435.685 162.898 437.177 159.283 439.834 156.618C442.491 153.952 446.095 152.455 449.852 152.455ZM449.852 178.409C452.167 178.409 454.429 177.72 456.354 176.43C458.279 175.14 459.779 173.306 460.664 171.161C461.55 169.016 461.782 166.655 461.33 164.377C460.879 162.1 459.764 160.008 458.127 158.366C456.491 156.724 454.405 155.605 452.135 155.152C449.865 154.699 447.512 154.932 445.373 155.821C443.235 156.709 441.407 158.214 440.121 160.145C438.835 162.076 438.149 164.346 438.149 166.668C438.149 169.782 439.382 172.768 441.576 174.97C443.771 177.172 446.748 178.409 449.852 178.409Z" fill="#FF9719"/>
<path fill-rule="evenodd" clip-rule="evenodd" d="M497.46 21.8386C497.46 21.8386 498.261 35.4336 499.308 35.4336C500.355 35.4336 501.156 21.8386 501.156 21.8386C501.156 21.347 500.961 20.8754 500.615 20.5277C500.268 20.1801 499.798 19.9848 499.308 19.9848C498.818 19.9848 498.348 20.1801 498.001 20.5277C497.655 20.8754 497.46 21.347 497.46 21.8386ZM503.62 19.3652C503.62 19.3652 518.403 18.5619 518.403 17.5114C518.403 16.4608 503.62 15.6575 503.62 15.6575C503.13 15.6575 502.66 15.8528 502.313 16.2005C501.967 16.5481 501.772 17.0197 501.772 17.5114C501.772 18.003 501.967 18.4746 502.313 18.8222C502.66 19.1699 503.13 19.3652 503.62 19.3652ZM501.156 12.568C501.156 13.0597 500.961 13.5312 500.615 13.8789C500.268 14.2265 499.798 14.4219 499.308 14.4219C498.818 14.4219 498.348 14.2265 498.001 13.8789C497.655 13.5312 497.46 13.0597 497.46 12.568C497.46 12.568 498.261 0.208893 499.308 0.208893C500.355 0.208893 501.156 12.568 501.156 12.568ZM495.612 15.6575C495.612 15.6575 482.061 16.4608 482.061 17.5114C482.061 18.5619 495.612 19.3652 495.612 19.3652C496.102 19.3652 496.572 19.1699 496.919 18.8222C497.265 18.4746 497.46 18.003 497.46 17.5114C497.46 17.0197 497.265 16.5481 496.919 16.2005C496.572 15.8528 496.102 15.6575 495.612 15.6575Z" fill="#FF9719"/>
<path d="M17.7747 37.3017C16.7454 37.3017 15.9584 36.5061 15.9584 35.4654C15.9584 35.4654 16.7454 22 17.7747 22C18.8039 22 19.5909 35.4654 19.5909 35.4654C19.5909 36.5061 18.8035 37.3017 17.7747 37.3017Z" fill="#FF9B19"/>
<path d="M22.0125 41.5866C20.9832 41.5866 20.1962 40.791 20.1962 39.7503C20.1962 38.7097 20.9832 37.9141 22.0125 37.9141C22.0125 37.9141 36.5423 38.7097 36.5423 39.7503C36.5419 40.791 22.0125 41.5866 22.0125 41.5866Z" fill="#FF9B19"/>
<path d="M17.7747 56.8884C16.7454 56.8884 15.9584 44.6468 15.9584 44.6468C15.9584 43.6062 16.7454 42.8105 17.7747 42.8105C18.8039 42.8105 19.5909 43.6062 19.5909 44.6468C19.5909 44.6468 18.8035 56.8884 17.7747 56.8884Z" fill="#FF9B19"/>
<path d="M14.1421 41.5866C14.1421 41.5866 0.823242 40.791 0.823242 39.7503C0.823242 38.7097 14.1421 37.9141 14.1421 37.9141C15.1714 37.9141 15.9584 38.7097 15.9584 39.7503C15.9584 40.791 15.1714 41.5866 14.1421 41.5866Z" fill="#FF9B19"/>
</svg>
