<?xml version="1.0" standalone="no"?>
<!DOCTYPE svg PUBLIC "-//W3C//DTD SVG 20010904//EN"
 "http://www.w3.org/TR/2001/REC-SVG-20010904/DTD/svg10.dtd">
<svg version="1.0" xmlns="http://www.w3.org/2000/svg"
 width="229.000000pt" height="205.000000pt" viewBox="0 0 229.000000 205.000000"
 preserveAspectRatio="xMidYMid meet">
<metadata>
Created by potrace 1.10, written by Peter Selinger 2001-2011
</metadata>
<g transform="translate(0.000000,205.000000) scale(0.100000,-0.100000)"
fill="#000000" stroke="none">
<path d="M1065 1950 c-63 -10 -111 -27 -102 -36 3 -3 25 0 48 7 68 20 309 17
389 -5 148 -40 245 -90 363 -184 122 -96 240 -272 283 -418 8 -30 19 -54 24
-54 28 0 -66 219 -134 314 -51 71 -160 178 -229 225 -75 51 -206 109 -298 131
-98 24 -259 33 -344 20z"/>
<path d="M1019 1452 c-63 -64 -122 -132 -132 -150 l-18 -32 24 0 c14 0 60 23
103 51 l79 51 -41 -43 c-86 -93 -204 -249 -204 -272 0 -14 21 4 30 26 16 42
179 234 254 302 42 38 74 71 71 73 -3 3 -15 -4 -28 -16 -26 -24 -246 -162
-259 -162 -18 0 38 67 144 172 59 58 108 109 108 112 0 18 -28 -6 -131 -112z"/>
<path d="M1482 1549 c-158 -18 -283 -68 -281 -112 l0 -22 9 23 c18 44 158 89
322 105 l48 5 -79 -77 c-80 -78 -117 -132 -107 -157 4 -12 20 -7 76 21 38 19
70 33 70 29 0 -3 -17 -27 -37 -54 -27 -34 -60 -59 -112 -86 -118 -62 -258
-210 -228 -241 21 -20 72 18 193 142 129 133 160 155 212 155 20 0 23 3 14 12
-9 9 -21 7 -52 -5 -48 -18 -49 -22 28 71 48 57 50 76 5 43 -48 -36 -153 -82
-153 -67 0 24 153 185 204 213 19 11 17 12 -19 11 -22 0 -73 -4 -113 -9z m-71
-346 c-25 -35 -168 -175 -201 -197 -32 -21 -39 -20 -33 4 12 45 131 156 218
203 40 21 40 21 16 -10z"/>
<path d="M960 1428 c-73 -69 -265 -234 -338 -291 -57 -44 -138 -78 -167 -71
-19 5 -25 2 -25 -10 0 -53 137 17 301 154 138 115 326 290 312 290 -4 -1 -42
-33 -83 -72z"/>
<path d="M980 862 c-7 -20 -26 -64 -41 -96 -16 -33 -29 -61 -29 -63 0 -2 8 -3
19 -3 10 0 21 9 24 20 4 15 14 20 40 20 27 0 37 -5 42 -20 5 -17 45 -30 45
-15 0 4 -80 186 -84 192 -1 1 -8 -14 -16 -35z m30 -72 c9 -18 8 -20 -15 -20
-23 0 -24 2 -15 20 6 11 13 20 15 20 2 0 9 -9 15 -20z"/>
<path d="M550 870 c0 -15 7 -20 25 -20 24 0 25 -2 25 -75 0 -66 2 -75 18 -75
17 0 18 7 14 75 l-4 75 26 0 c19 0 26 5 26 20 0 18 -7 20 -65 20 -58 0 -65 -2
-65 -20z"/>
<path d="M1336 871 c-27 -30 -17 -63 26 -86 23 -12 38 -27 38 -38 0 -15 -7
-18 -41 -15 -55 4 -64 -18 -13 -28 95 -18 131 87 38 110 -16 4 -24 13 -24 27
0 19 4 21 35 16 36 -6 58 9 34 24 -25 15 -75 10 -93 -10z"/>
<path d="M1690 795 c0 -88 1 -95 20 -95 17 0 20 7 20 40 0 22 3 40 8 40 4 -1
19 -19 34 -40 17 -24 36 -40 48 -40 27 0 26 5 -15 54 -19 24 -35 47 -35 52 0
4 17 25 37 46 35 36 36 38 14 38 -15 0 -38 -16 -62 -42 l-39 -43 6 43 c6 38 5
42 -15 42 -20 0 -21 -5 -21 -95z"/>
<path d="M310 827 c0 -15 53 -153 75 -197 122 -242 353 -416 630 -476 121 -26
405 -13 405 18 0 6 -11 7 -24 4 -428 -107 -900 151 -1043 571 -15 46 -31 83
-35 83 -5 0 -8 -1 -8 -3z"/>
</g>
</svg>
